# xmcd CD database file
#
# Track frame offsets:
#	150
#	9083
#	26594
#	41548
#	52957
#	61613
#	73541
#	89285
#	105153
#	119567
#	135560
#
# Disc length: 2116 seconds
#
# Revision: 1
# Processed by: cddbd v1.5.2PL0 Copyright (c) Steve Scherf et al.
# Submitted via: CDex 1.51
#
DISCID=7d08420b
DTITLE=Al Jarreau - Collection  '' 2 artistes en OR ''
DYEAR=2009
DGENRE=Jazz
TTITLE0=Ain't No Sunshine
TTITLE1=Lean On Me
TTITLE2=Let's Stay Together
TTITLE3=Tired Of Being Alone
TTITLE4=Grandma's Hands
TTITLE5=Living For You
TTITLE6=Lonely Town, Lonely Street
TTITLE7=Kissing My Love
TTITLE8=Same Love That Made Me Laugh
TTITLE9=Use Me
TTITLE10=You
EXTD=YEAR: 2009
EXTT0=
EXTT1=
EXTT2=
EXTT3=
EXTT4=
EXTT5=
EXTT6=
EXTT7=
EXTT8=
EXTT9=
EXTT10=
PLAYORDER=
